HIERARCHY
ROOT Hips
{
	OFFSET 0.000000 35.082581 0.000000
	CHANNELS 6 Xposition Yposition Zposition Xrotation Yrotation Zrotation 
	JOINT Spine
	{
		OFFSET 0.000000 6.876099 0.125700
		CHANNELS 3 Xrotation Yrotation Zrotation
		JOINT Spine1
		{
			OFFSET 0.000000 5.730043 0.104720
			CHANNELS 3 Xrotation Yrotation Zrotation
			JOINT Spine1_split
			{
				OFFSET 0.000000 5.730043 0.104720
				CHANNELS 3 Xrotation Yrotation Zrotation
				JOINT Spine2
				{
					OFFSET 0.000000 5.730043 0.104720
					CHANNELS 3 Xrotation Yrotation Zrotation
					JOINT Neck
					{
						OFFSET 0.000000 10.314075 0.188496
						CHANNELS 3 Xrotation Yrotation Zrotation
						JOINT Head
						{
							OFFSET 0.000000 7.643700 -2.377400
							CHANNELS 3 Xrotation Yrotation Zrotation
							JOINT HeadTop_End
							{
								OFFSET 0.000000 43.788605 -13.619600
								CHANNELS 3 Xrotation Yrotation Zrotation
								End Site
								{
									OFFSET 0.000000 0.000000 0.000000
								}
							}
						}
					}
					JOINT LeftShoulder
					{
						OFFSET 2.196100 4.412489 0.087492
						CHANNELS 3 Xrotation Yrotation Zrotation
						JOINT LeftShoulder_split
						{
							OFFSET 2.196100 4.412489 0.087492
							CHANNELS 3 Xrotation Yrotation Zrotation
							JOINT LeftArm
							{
								OFFSET 8.771219 -2.981674 -0.026999
								CHANNELS 3 Xrotation Yrotation Zrotation
								JOINT LeftForeArm
								{
									OFFSET 8.512804 0.000000 -0.000000
									CHANNELS 3 Xrotation Yrotation Zrotation
									JOINT LeftHand
									{
										OFFSET 18.484802 0.000000 -0.000000
										CHANNELS 3 Xrotation Yrotation Zrotation
										JOINT LeftHandThumb1
										{
											OFFSET 2.499420 -1.158070 2.653252
											CHANNELS 3 Xrotation Yrotation Zrotation
											JOINT LeftHandThumb2
											{
												OFFSET 2.370079 -1.368366 1.368366
												CHANNELS 3 Xrotation Yrotation Zrotation
												JOINT LeftHandThumb3
												{
													OFFSET 2.676727 -1.545410 1.545409
													CHANNELS 3 Xrotation Yrotation Zrotation
													JOINT LeftHandThumb4
													{
														OFFSET 1.692226 -0.977005 0.977007
														CHANNELS 3 Xrotation Yrotation Zrotation
														End Site
														{
															OFFSET 0.000000 0.000000 0.000000
														}
													}
												}
											}
										}
										JOINT LeftHandIndex1
										{
											OFFSET 7.924831 -0.457527 2.345128
											CHANNELS 3 Xrotation Yrotation Zrotation
											JOINT LeftHandIndex2
											{
												OFFSET 3.643303 0.000000 0.000000
												CHANNELS 3 Xrotation Yrotation Zrotation
												JOINT LeftHandIndex3
												{
													OFFSET 3.810799 0.000000 0.000000
													CHANNELS 3 Xrotation Yrotation Zrotation
													JOINT LeftHandIndex4
													{
														OFFSET 2.403702 0.000000 0.000000
														CHANNELS 3 Xrotation Yrotation Zrotation
														End Site
														{
															OFFSET 0.000000 0.000000 0.000000
														}
													}
												}
											}
										}
										JOINT LeftHandMiddle1
										{
											OFFSET 8.563995 0.000000 -0.000000
											CHANNELS 3 Xrotation Yrotation Zrotation
											JOINT LeftHandMiddle2
											{
												OFFSET 3.861618 0.000000 0.000000
												CHANNELS 3 Xrotation Yrotation Zrotation
												JOINT LeftHandMiddle3
												{
													OFFSET 3.701603 0.000000 0.000000
													CHANNELS 3 Xrotation Yrotation Zrotation
													JOINT LeftHandMiddle4
													{
														OFFSET 2.322544 0.000000 0.000000
														CHANNELS 3 Xrotation Yrotation Zrotation
														End Site
														{
															OFFSET 0.000000 0.000000 0.000000
														}
													}
												}
											}
										}
										JOINT LeftHandRing1
										{
											OFFSET 8.426460 -0.424637 -3.286992
											CHANNELS 3 Xrotation Yrotation Zrotation
											JOINT LeftHandRing2
											{
												OFFSET 3.126408 0.000000 0.000000
												CHANNELS 3 Xrotation Yrotation Zrotation
												JOINT LeftHandRing3
												{
													OFFSET 3.085026 0.000000 0.000000
													CHANNELS 3 Xrotation Yrotation Zrotation
													JOINT LeftHandRing4
													{
														OFFSET 1.644005 0.000000 0.000000
														CHANNELS 3 Xrotation Yrotation Zrotation
														End Site
														{
															OFFSET 0.000000 0.000000 0.000000
														}
													}
												}
											}
										}
									}
								}
							}
						}
					}
					JOINT RightShoulder
					{
						OFFSET -2.196100 4.412496 0.070690
						CHANNELS 3 Xrotation Yrotation Zrotation
						JOINT RightShoulder_split
						{
							OFFSET -2.196100 4.412496 0.070690
							CHANNELS 3 Xrotation Yrotation Zrotation
							JOINT RightArm
							{
								OFFSET -8.771282 -2.981682 -0.094208
								CHANNELS 3 Xrotation Yrotation Zrotation
								JOINT RightForeArm
								{
									OFFSET -8.494598 0.000000 0.000000
									CHANNELS 3 Xrotation Yrotation Zrotation
									JOINT RightHand
									{
										OFFSET -18.483803 0.000000 0.000001
										CHANNELS 3 Xrotation Yrotation Zrotation
										JOINT RightHandThumb1
										{
											OFFSET -2.527351 -1.008072 2.575253
											CHANNELS 3 Xrotation Yrotation Zrotation
											JOINT RightHandThumb2
											{
												OFFSET -2.321518 -1.340328 1.340329
												CHANNELS 3 Xrotation Yrotation Zrotation
												JOINT RightHandThumb3
												{
													OFFSET -2.657753 -1.534454 1.534455
													CHANNELS 3 Xrotation Yrotation Zrotation
													JOINT RightHandThumb4
													{
														OFFSET -1.807510 -1.043568 1.043567
														CHANNELS 3 Xrotation Yrotation Zrotation
														End Site
														{
															OFFSET 0.000000 0.000000 0.000000
														}
													}
												}
											}
										}
										JOINT RightHandIndex1
										{
											OFFSET -8.811420 0.015533 2.887987
											CHANNELS 3 Xrotation Yrotation Zrotation
											JOINT RightHandIndex2
											{
												OFFSET -3.537502 0.000000 0.000000
												CHANNELS 3 Xrotation Yrotation Zrotation
												JOINT RightHandIndex3
												{
													OFFSET -3.356201 0.000000 0.000000
													CHANNELS 3 Xrotation Yrotation Zrotation
													JOINT RightHandIndex4
													{
														OFFSET -1.933098 0.000000 0.000000
														CHANNELS 3 Xrotation Yrotation Zrotation
														End Site
														{
															OFFSET 0.000000 0.000000 0.000000
														}
													}
												}
											}
										}
										JOINT RightHandMiddle1
										{
											OFFSET -8.178135 0.000000 0.000000
											CHANNELS 3 Xrotation Yrotation Zrotation
											JOINT RightHandMiddle2
											{
												OFFSET -3.901302 0.000000 0.000000
												CHANNELS 3 Xrotation Yrotation Zrotation
												JOINT RightHandMiddle3
												{
													OFFSET -3.909599 0.000000 0.000000
													CHANNELS 3 Xrotation Yrotation Zrotation
													JOINT RightHandMiddle4
													{
														OFFSET -2.376003 0.000000 0.000000
														CHANNELS 3 Xrotation Yrotation Zrotation
														End Site
														{
															OFFSET 0.000000 0.000000 0.000000
														}
													}
												}
											}
										}
										JOINT RightHandRing1
										{
											OFFSET -7.559013 0.014137 -2.865403
											CHANNELS 3 Xrotation Yrotation Zrotation
											JOINT RightHandRing2
											{
												OFFSET -3.449306 0.000000 0.000000
												CHANNELS 3 Xrotation Yrotation Zrotation
												JOINT RightHandRing3
												{
													OFFSET -3.362106 0.000000 0.000000
													CHANNELS 3 Xrotation Yrotation Zrotation
													JOINT RightHandRing4
													{
														OFFSET -2.076401 0.000000 0.000000
														CHANNELS 3 Xrotation Yrotation Zrotation
														End Site
														{
															OFFSET 0.000000 0.000000 0.000000
														}
													}
												}
											}
										}
									}
								}
							}
						}
					}
				}
			}
		}
	}
	JOINT LeftUpLeg
	{
		OFFSET 10.205400 -3.823500 0.155100
		CHANNELS 3 Xrotation Yrotation Zrotation
		JOINT LeftLeg
		{
			OFFSET 0.708757 -12.982077 0.567790
			CHANNELS 3 Xrotation Yrotation Zrotation
			JOINT LeftFoot
			{
				OFFSET -0.708756 -10.717838 -2.184338
				CHANNELS 3 Xrotation Yrotation Zrotation
				JOINT LeftToeBase
				{
					OFFSET 0.108149 -7.191104 7.560241
					CHANNELS 3 Xrotation Yrotation Zrotation
					JOINT LeftToe_End
					{
						OFFSET 0.070230 0.081724 4.490308
						CHANNELS 3 Xrotation Yrotation Zrotation
						End Site
						{
							OFFSET 0.000000 0.000000 0.000000
						}
					}
				}
			}
		}
	}
	JOINT RightUpLeg
	{
		OFFSET -10.205400 -3.823500 0.005500
		CHANNELS 3 Xrotation Yrotation Zrotation
		JOINT RightLeg
		{
			OFFSET -0.708756 -12.982134 0.610632
			CHANNELS 3 Xrotation Yrotation Zrotation
			JOINT RightFoot
			{
				OFFSET 0.708754 -10.717769 -1.945823
				CHANNELS 3 Xrotation Yrotation Zrotation
				JOINT RightToeBase
				{
					OFFSET -0.108140 -7.191069 7.372968
					CHANNELS 3 Xrotation Yrotation Zrotation
					JOINT RightToe_End
					{
						OFFSET -0.070227 0.081735 4.479403
						CHANNELS 3 Xrotation Yrotation Zrotation
						End Site
						{
							OFFSET 0.000000 0.000000 0.000000
						}
					}
				}
			}
		}
	}
}
MOTION
Frames: 4
Frame Time: 0.016667
-0.268896 28.598198 -0.034539 3.000806 -58.172202 6.374425 11.189901 0.063074 -2.592187 8.434587 0.027703 -5.592321 0.000000 0.000000 0.000000 8.457055 0.027853 -5.591869 -21.555652 25.063367 12.062568 -0.294038 25.465749 -3.208974 0.000000 0.000000 -0.000000 -6.221675 -11.503862 -4.023816 0.000000 0.000000 0.000000 -23.062185 9.568556 -36.639600 0.046109 -43.169128 -0.011151 22.743751 -5.685881 15.979286 -1.064250 -7.954924 8.490068 2.373398 19.986098 -2.038337 0.808196 1.237776 2.631729 0.000001 -0.000002 -0.000000 13.340887 -1.006678 10.682249 -0.167591 0.303384 -31.105610 -0.143402 0.303640 -32.256282 0.000002 0.000000 -0.000001 8.495447 -0.329570 -0.915313 0.231509 0.661199 -29.901861 0.444094 0.213442 -44.357007 -0.000002 -0.000000 -0.000000 6.111745 3.150905 -16.210969 0.047062 0.322401 -30.125478 0.408793 0.818968 -42.140662 0.000000 -0.000001 -0.000003 -5.488235 10.658262 2.466518 0.000000 0.000000 0.000000 -41.473814 -26.755565 30.079088 24.955421 111.862974 -23.308442 -8.702501 12.423041 -9.801969 0.265000 10.061112 -10.888488 1.383824 -17.412883 3.016298 3.342331 -13.253720 -8.262764 0.000003 -0.000000 0.000001 19.443607 11.174446 -13.340205 -0.118651 -0.322730 18.035594 -0.089900 -0.286598 23.256589 -0.000001 0.000001 -0.000001 4.320475 2.436952 -4.811726 0.349131 -0.461246 26.890318 0.467482 0.154070 39.044841 0.000000 0.000000 0.000001 -7.005631 -10.695139 5.719847 0.111881 -0.089204 26.155878 0.451290 -0.473556 33.265074 0.000003 -0.000001 0.000000 -37.008069 4.712528 33.451043 48.226829 -12.868898 -11.599429 -12.628876 -0.311791 -14.432980 -0.327625 1.238411 0.837241 0.000000 -0.000003 0.000000 -31.640954 -2.217353 -36.234427 60.434429 9.478172 -7.241524 -30.093270 -4.063177 28.285839 -0.322747 -0.997410 -0.837178 0.000000 0.000001 0.000000 
-0.278231 28.599060 -0.017589 3.066386 -58.215799 6.407651 11.112689 0.079593 -2.568890 8.281123 0.065561 -5.543474 0.000000 0.000000 0.000000 8.303568 0.065714 -5.543006 -21.313520 24.821469 11.931885 -0.501501 25.223303 -3.073464 -0.000000 -0.000000 0.000000 -5.888032 -11.348861 -4.111603 0.000000 0.000000 0.000000 -23.088843 9.805531 -36.732081 -0.223603 -43.320348 -0.178067 22.774837 -5.786707 15.762760 -1.013355 -7.979048 8.385275 2.373231 19.985724 -2.038476 0.808349 1.237993 2.631753 -0.000000 0.000003 0.000002 13.392778 -0.857335 10.369740 -0.168838 0.304174 -31.279152 -0.145033 0.304765 -32.541668 0.000000 0.000000 -0.000000 8.501716 -0.177911 -1.121769 0.233290 0.661440 -30.053645 0.447228 0.213042 -44.579248 0.000001 0.000000 -0.000000 6.115913 3.344608 -16.345855 0.048436 0.323120 -30.253046 0.410725 0.818820 -42.310744 -0.000001 0.000001 0.000003 -5.146260 10.690703 2.467531 0.000000 0.000000 0.000000 -41.573750 -27.076238 29.890066 27.927827 112.638337 -26.280001 -8.524167 12.683907 -9.630395 0.058333 10.763353 -10.139009 1.383859 -17.413058 3.016223 3.360124 -13.347161 -8.304059 -0.000000 -0.000005 -0.000000 19.385113 11.008842 -11.664737 -0.125437 -0.326330 19.069072 -0.096732 -0.289707 24.356386 -0.000000 -0.000000 0.000001 4.347768 1.811601 -3.663109 0.356067 -0.461081 27.691747 0.473722 0.156250 39.904595 -0.000005 -0.000003 -0.000001 -6.837583 -11.512224 6.465788 0.115967 -0.091567 26.770261 0.454470 -0.472545 33.906114 -0.000004 -0.000001 0.000001 -37.045303 4.612482 33.450913 48.431505 -12.827640 -11.555481 -12.672900 -0.292169 -14.493356 -0.358545 1.237988 0.774023 0.000000 -0.000005 -0.000000 -31.622277 -2.096072 -36.131387 60.449312 9.371648 -7.316727 -30.009088 -4.095893 28.423921 -0.374851 -0.996911 -0.814362 0.000000 -0.000002 0.000000 
-0.286983 28.597893 -0.001199 3.132027 -58.259301 6.440910 11.103471 0.093384 -2.555470 8.263428 0.094334 -5.514618 0.000000 0.000000 0.000000 8.285890 0.094492 -5.514157 -21.429172 24.538182 11.838496 -0.484132 24.969425 -3.032913 0.000000 0.000000 0.000001 -5.880236 -11.203447 -4.136704 0.000000 0.000000 0.000000 -23.070912 10.188974 -36.902546 -0.778791 -43.644021 -0.618950 22.885920 -5.874776 15.640297 -0.936066 -7.901294 8.281043 2.381440 20.006191 -2.031149 0.808435 1.238123 2.631728 -0.000001 0.000004 -0.000000 13.380405 -0.903471 10.415425 -0.168408 0.303879 -31.216259 -0.144583 0.304490 -32.466604 0.000002 0.000000 -0.000001 8.500999 -0.157130 -1.020055 0.232478 0.661351 -29.983543 0.445407 0.213265 -44.452230 -0.000000 -0.000000 -0.000000 6.103004 3.435155 -16.138193 0.047761 0.322752 -30.188842 0.408948 0.819070 -42.144473 -0.000000 -0.000001 -0.000003 -5.152132 10.691565 2.516016 0.000000 0.000000 0.000000 -41.675349 -27.395460 29.700367 30.754942 113.473805 -29.096370 -7.964707 12.641077 -9.574786 -0.272438 11.449476 -9.779556 1.392582 -17.434078 3.008414 3.351697 -13.302451 -8.284240 -0.000000 0.000000 0.000005 19.283198 11.017653 -10.724544 -0.128902 -0.328182 19.592169 -0.100144 -0.291193 24.899333 -0.000001 0.000001 -0.000000 4.335204 1.528102 -2.596393 0.361453 -0.460803 28.315637 0.478269 0.157906 40.543463 0.000002 -0.000000 0.000000 -6.574469 -12.132976 7.760434 0.121347 -0.094754 27.577510 0.458387 -0.470887 34.734575 0.000001 -0.000000 -0.000001 -37.071774 4.524392 33.436119 48.626330 -12.770423 -11.508799 -12.743642 -0.276789 -14.506900 -0.389465 1.237558 0.710764 -0.000000 0.000005 0.000000 -31.594666 -1.986746 -36.016827 60.455835 9.243123 -7.392744 -29.951025 -4.122724 28.524852 -0.427034 -0.995841 -0.791700 0.000000 0.000001 0.000000 
-0.297160 28.589508 0.017727 3.239447 -58.296955 6.518699 11.089761 0.110897 -2.540234 8.236896 0.130308 -5.482834 0.000000 0.000000 0.000000 8.259353 0.130465 -5.482373 -21.566054 24.146855 11.698340 -0.461434 24.621503 -2.974631 0.000000 -0.000000 -0.000000 -5.870537 -11.061415 -4.171708 0.000000 0.000000 0.000000 -22.987244 10.659073 -37.048415 -1.551503 -44.072113 -1.371627 23.004902 -5.957705 15.638857 -0.867472 -7.784740 8.163925 2.371667 19.981939 -2.039793 0.808359 1.238144 2.631890 -0.000001 0.000001 0.000002 13.356446 -0.993997 10.520302 -0.167653 0.303513 -31.113199 -0.143842 0.303759 -32.322610 -0.000001 -0.000001 0.000000 8.488153 -0.167006 -0.852476 0.231247 0.661082 -29.882931 0.442619 0.213670 -44.247359 -0.000001 -0.000000 -0.000001 6.084673 3.499131 -15.846336 0.046794 0.322326 -30.097423 0.406095 0.819144 -41.895841 -0.000000 0.000000 0.000000 -5.178388 10.652651 2.668580 0.000000 0.000000 0.000000 -41.781988 -27.790447 29.400761 35.112691 114.823403 -33.451360 -7.092266 12.745483 -9.489335 -0.610349 12.109785 -9.454119 1.382305 -17.409249 3.017646 3.337030 -13.225098 -8.249956 -0.000000 -0.000003 -0.000000 19.197049 10.951360 -9.698055 -0.132396 -0.330091 20.134788 -0.103521 -0.293021 25.460423 0.000000 0.000000 0.000000 4.354845 1.175976 -1.362042 0.367477 -0.460509 29.018991 0.483449 0.159818 41.255135 -0.000000 -0.000000 -0.000000 -6.208855 -12.853173 9.348217 0.127950 -0.098463 28.547267 0.463005 -0.468818 35.726534 -0.000003 -0.000001 -0.000001 -37.141455 4.398259 33.398286 48.897007 -12.701137 -11.446160 -12.834784 -0.254197 -14.526614 -0.425388 1.237065 0.637701 -0.000000 -0.000000 0.000000 -31.600785 -1.824618 -35.910116 60.535577 9.103484 -7.478677 -29.905324 -4.162208 28.639473 -0.498173 -0.994887 -0.755882 0.000000 0.000000 -0.000000 
